<svg width="34" height="30" viewBox="0 0 34 30" fill="none" xmlns="http://www.w3.org/2000/svg">
<path d="M1.39993 8.94962L16.318 14.8708C16.7534 15.0439 17.2459 15.0439 17.6814 14.8708L32.5994 8.94962C33.6593 8.5288 33.6593 7.12738 32.5994 6.70657L17.6821 0.784856C17.4681 0.699287 17.2356 0.654999 17.0003 0.654999C16.7651 0.654999 16.5326 0.699287 16.3186 0.784856L1.39993 6.706C0.340028 7.12682 0.340028 8.5288 1.39993 8.94962ZM32.6001 13.8963L28.8799 12.4209L18.5281 16.5266C18.0439 16.7188 17.5296 16.8163 17 16.8163C16.4704 16.8163 15.9568 16.7188 15.472 16.5266L5.12079 12.4209L1.39993 13.8963C0.340028 14.3166 0.340028 15.7174 1.39993 16.1377L16.318 22.0544C16.7534 22.227 17.2459 22.227 17.6814 22.0544L32.6001 16.1377C33.66 15.7174 33.66 14.3166 32.6001 13.8963ZM32.6001 21.0575L28.8939 19.5877L18.5281 23.699C18.0439 23.8912 17.5296 23.9887 17 23.9887C16.4704 23.9887 15.9568 23.8912 15.472 23.699L5.1067 19.5877L1.39993 21.0575C0.340028 21.4778 0.340028 22.8786 1.39993 23.2989L16.318 29.2156C16.7534 29.3881 17.2459 29.3881 17.6814 29.2156L32.6001 23.2989C33.66 22.8786 33.66 21.4778 32.6001 21.0575Z" fill="#BBD1FB"/>
</svg>
